<?xml version="1.0" standalone="no"?><!DOCTYPE svg PUBLIC "-//W3C//DTD SVG 1.1//EN" "http://www.w3.org/Graphics/SVG/1.1/DTD/svg11.dtd"><svg t="1514252258075" class="icon" style="" viewBox="0 0 1024 1024" version="1.1" xmlns="http://www.w3.org/2000/svg" p-id="2683" xmlns:xlink="http://www.w3.org/1999/xlink" width="200" height="200"><defs><style type="text/css"></style></defs><path d="M352 633.6c-6.4 0-6.4 6.4-12.8 6.4-19.2-6.4-25.6-12.8-32-25.6v-6.4L217.6 409.6v-6.4c0-12.8 6.4-19.2 12.8-19.2s6.4 0 6.4 6.4l102.4 76.8c6.4 6.4 19.2 6.4 25.6 6.4H384l486.4-230.4C787.2 134.4 640 64 480 64 217.6 64 0 256 0 486.4c0 128 64 243.2 166.4 320 6.4 6.4 12.8 19.2 12.8 25.6v12.8c-6.4 32-19.2 83.2-19.2 83.2v12.8c0 6.4 6.4 19.2 19.2 19.2h6.4l102.4-64c6.4-6.4 19.2-6.4 25.6-6.4h12.8c51.2 12.8 102.4 25.6 153.6 25.6 262.4 0 480-192 480-422.4 0-70.4-19.2-134.4-57.6-198.4L352 633.6z" p-id="2684" fill="green"></path></svg>
